<?xml version="1.0" encoding="UTF-8" standalone="no"?>
<!-- Generator: Adobe Illustrator 22.0.0, SVG Export Plug-In . SVG Version: 6.00 Build 0)  -->

<svg
   xmlns:dc="http://purl.org/dc/elements/1.1/"
   xmlns:cc="http://creativecommons.org/ns#"
   xmlns:rdf="http://www.w3.org/1999/02/22-rdf-syntax-ns#"
   xmlns:svg="http://www.w3.org/2000/svg"
   xmlns="http://www.w3.org/2000/svg"
   xmlns:sodipodi="http://sodipodi.sourceforge.net/DTD/sodipodi-0.dtd"
   xmlns:inkscape="http://www.inkscape.org/namespaces/inkscape"
   version="1.1"
   id="图层_1"
   x="0px"
   y="0px"
   viewBox="0 0 1366 768"
   style="enable-background:new 0 0 1366 768;"
   xml:space="preserve"
   sodipodi:docname="station.svg"
   inkscape:version="0.92.4 (5da689c313, 2019-01-14)"><metadata
   id="metadata630"><rdf:RDF><cc:Work
       rdf:about=""><dc:format>image/svg+xml</dc:format><dc:type
         rdf:resource="http://purl.org/dc/dcmitype/StillImage" /></cc:Work></rdf:RDF></metadata><defs
   id="defs628" /><sodipodi:namedview
   pagecolor="#ffffff"
   bordercolor="#666666"
   borderopacity="1"
   objecttolerance="10"
   gridtolerance="10"
   guidetolerance="10"
   inkscape:pageopacity="0"
   inkscape:pageshadow="2"
   inkscape:window-width="1532"
   inkscape:window-height="878"
   id="namedview626"
   showgrid="false"
   inkscape:zoom="1.1432292"
   inkscape:cx="477.56849"
   inkscape:cy="279.03417"
   inkscape:window-x="60"
   inkscape:window-y="-8"
   inkscape:window-maximized="1"
   inkscape:current-layer="layer1"
   inkscape:snap-text-baseline="true" />
<style
   type="text/css"
   id="style321">
	.st0{fill:#EFEFEF;stroke:#231815;stroke-linecap:round;stroke-miterlimit:10;}
	.st1{fill:none;stroke:#000000;stroke-width:6;stroke-miterlimit:10;}
	.st2{fill:none;stroke:#000000;stroke-width:5;stroke-miterlimit:10;}
	.st3{font-family:'AdobeSongStd-Light-GBpc-EUC-H';}
	.st4{font-size:32.9492px;}
	.st5{font-size:34.3733px;}
	.st6{fill:#E6E6E6;stroke:#000000;stroke-width:6;stroke-miterlimit:10;}
	.st7{fill:none;stroke:#000000;stroke-width:2;stroke-miterlimit:10;}
	.st8{fill:#B3B3B3;stroke:#000000;stroke-width:2;stroke-miterlimit:10;}
	.st9{fill:#808080;stroke:#231815;stroke-width:2;stroke-linecap:round;stroke-miterlimit:10;}
	.st10{fill:#CCCCCC;stroke:#231815;stroke-linecap:round;stroke-miterlimit:10;}
	.st11{fill:none;stroke:#231815;stroke-linecap:round;stroke-miterlimit:10;}
	.st12{fill:#B3B3B3;stroke:#231815;stroke-linecap:round;stroke-miterlimit:10;}
	.st13{fill:#FFFF00;stroke:#FFFF00;stroke-width:6;stroke-linecap:round;stroke-miterlimit:10;}
	.st14{font-size:26px;}
	.st15{fill:#B3B3B3;stroke:#000000;stroke-width:3;stroke-miterlimit:10;}
	.st16{fill:none;stroke:#000000;stroke-miterlimit:10;}
	.st17{fill:#E6E6E6;stroke:#000000;stroke-miterlimit:10;}
	.st18{fill:none;stroke:#000000;stroke-width:3;stroke-miterlimit:10;}
	.st19{stroke:#000000;stroke-miterlimit:10;}
	.st20{fill:#00FF00;}
	.st21{fill:none;}
	.st22{fill:#F2F2F2;stroke:#000000;stroke-miterlimit:10;}
	.st23{font-size:15px;}
	.st24{font-size:21px;}
</style>
<polygon
   class="st0"
   points="1101.2,527.8 1086,504.1 1116,503.6 "
   id="polygon323" />
<line
   class="st1"
   x1="171"
   y1="279"
   x2="388"
   y2="279"
   id="line325" />
<line
   class="st1"
   x1="171"
   y1="276"
   x2="175"
   y2="619"
   id="line327" />
<line
   class="st1"
   x1="316"
   y1="279"
   x2="644"
   y2="279"
   id="line329" />
<line
   class="st2"
   x1="678.7"
   y1="280.5"
   x2="679.4"
   y2="242.6"
   id="line331" />

<line
   class="st1"
   x1="1100"
   y1="276"
   x2="1100"
   y2="503"
   id="line335" />


<line
   class="st1"
   x1="574"
   y1="278"
   x2="574"
   y2="311"
   id="line339" />
<line
   class="st2"
   x1="573.9"
   y1="337.8"
   x2="534.4"
   y2="337.1"
   id="line341" />



<line
   class="st1"
   x1="574"
   y1="361"
   x2="574"
   y2="450"
   id="line347" />
<rect
   x="338.09827"
   y="434.35339"
   class="st6"
   width="488.80344"
   height="250.54832"
   id="rect349"
   style="fill:#e6e6e6;stroke:#000000;stroke-width:6.19654989;stroke-miterlimit:10" />
<line
   class="st1"
   x1="206"
   y1="655"
   x2="336"
   y2="655"
   id="line351" />
<line
   class="st7"
   x1="1239"
   y1="553"
   x2="1277"
   y2="553"
   id="line353" />
<line
   class="st7"
   x1="1277"
   y1="553"
   x2="1297"
   y2="572"
   id="line355" />
<line
   class="st7"
   x1="1297"
   y1="572"
   x2="1299"
   y2="603"
   id="line357" />
<line
   class="st7"
   x1="1299"
   y1="603"
   x2="1239"
   y2="603"
   id="line359" />
<line
   class="st7"
   x1="1239"
   y1="553"
   x2="1239"
   y2="603"
   id="line361" />
<rect
   x="1223"
   y="587"
   class="st7"
   width="16"
   height="7"
   id="rect363" />
<g
   id="g633"><rect
     id="rect365"
     height="51"
     width="180"
     class="st8"
     y="553"
     x="1043" /></g>
<ellipse
   class="st9"
   cx="1268.5"
   cy="617.4"
   rx="13"
   ry="13.1"
   id="ellipse367" />
<ellipse
   class="st9"
   cx="1075.5"
   cy="617.4"
   rx="13"
   ry="13.1"
   id="ellipse369" />
<ellipse
   class="st9"
   cx="1197.5"
   cy="617.4"
   rx="13"
   ry="13.1"
   id="ellipse371" />
<circle
   class="st10"
   cx="419.4"
   cy="129.9"
   r="39.1"
   id="circle373" />
<line
   class="st11"
   x1="362.5"
   y1="29.5"
   x2="475.5"
   y2="29.5"
   id="line375" />
<line
   class="st11"
   x1="362.5"
   y1="29.5"
   x2="362.5"
   y2="177.5"
   id="line377" />
<line
   class="st11"
   x1="475.5"
   y1="29.5"
   x2="475.5"
   y2="177.5"
   id="line379" />
<line
   class="st11"
   x1="362.5"
   y1="177.5"
   x2="475.5"
   y2="177.5"
   id="line381" />
<ellipse
   class="st12"
   cx="419.29999"
   cy="129.8"
   rx="34.200001"
   ry="33.700001"
   id="heater01LocalRemoteClick"
   style="fill:#b3b3b3;stroke:#231815;stroke-linecap:round;stroke-miterlimit:10" />
<line
   class=""
   x1="398"
   y1="103"
   x2="443.5"
   y2="153.5"
   id="heater01LocalRemote"
   style="fill:#ffff00;stroke:#ffff00;stroke-width:6;stroke-linecap:round;stroke-miterlimit:10" />
<line
   class="st11"
   x1="364.5"
   y1="74.5"
   x2="477.5"
   y2="74.5"
   id="line387" />
<line
   class="st11"
   x1="418.5"
   y1="29.5"
   x2="418.5"
   y2="74.5"
   id="line389" />
<text
   transform="matrix(0.8376 0 0 1 369.834 60.4551)"
   class="st3 st14"
   id="text391">就地</text>





<text
   transform="scale(0.94952621,1.0531568)"
   class="st3 st14"
   id="text393"
   x="444.4939"
   y="58.348576"
   style="font-size:24.6876812px;font-family:AdobeSongStd-Light-GBpc-EUC-H;stroke-width:0.94952619">远程</text>





<circle
   class="st10"
   cx="100.52073"
   cy="554.61981"
   r="39.099998"
   id="circle395"
   style="fill:#cccccc;stroke:#231815;stroke-linecap:round;stroke-miterlimit:10" />
<line
   class="st11"
   x1="43.620728"
   y1="454.21982"
   x2="156.62073"
   y2="454.21982"
   id="line397"
   style="fill:none;stroke:#231815;stroke-linecap:round;stroke-miterlimit:10" />
<line
   class="st11"
   x1="43.620728"
   y1="454.21982"
   x2="43.620728"
   y2="602.21979"
   id="line399"
   style="fill:none;stroke:#231815;stroke-linecap:round;stroke-miterlimit:10" />
<line
   class="st11"
   x1="156.62073"
   y1="454.21982"
   x2="156.62073"
   y2="602.21979"
   id="line401"
   style="fill:none;stroke:#231815;stroke-linecap:round;stroke-miterlimit:10" />
<line
   class="st11"
   x1="43.620728"
   y1="602.21979"
   x2="156.62073"
   y2="602.21979"
   id="line403"
   style="fill:none;stroke:#231815;stroke-linecap:round;stroke-miterlimit:10" />
<ellipse
   class="st12"
   cx="100.42073"
   cy="554.51978"
   rx="34.200001"
   ry="33.700001"
   id="loadPumpLocalRemoteClick"
   style="fill:#b3b3b3;stroke:#231815;stroke-linecap:round;stroke-miterlimit:10" />
<line
   class=""
   x1="79.120728"
   y1="527.71979"
   x2="124.62073"
   y2="578.21979"
   id="loadPumpLocalRemote"
   style="fill:#ffff00;stroke:#ffff00;stroke-width:6;stroke-linecap:round;stroke-miterlimit:10" />
<line
   class="st11"
   x1="45.620728"
   y1="499.21982"
   x2="158.62073"
   y2="499.21982"
   id="line409"
   style="fill:none;stroke:#231815;stroke-linecap:round;stroke-miterlimit:10" />
<line
   class="st11"
   x1="99.620728"
   y1="454.21982"
   x2="99.620728"
   y2="499.21982"
   id="line411"
   style="fill:none;stroke:#231815;stroke-linecap:round;stroke-miterlimit:10" />
<text
   transform="scale(0.9152049,1.0926515)"
   class="st3 st14"
   id="text413"
   x="55.675762"
   y="444.03445"
   style="font-size:23.79532814px;font-family:AdobeSongStd-Light-GBpc-EUC-H;stroke-width:0.91520488">就地</text>





<text
   transform="scale(0.9495262,1.0531568)"
   class="st3 st14"
   id="text415"
   x="108.66402"
   y="461.63116"
   style="font-size:24.6876812px;font-family:AdobeSongStd-Light-GBpc-EUC-H;stroke-width:0.94952619">远程</text>





<circle
   class="st10"
   cx="568.4"
   cy="129.9"
   r="39.1"
   id="circle417" />
<line
   class="st11"
   x1="511.5"
   y1="29.5"
   x2="624.5"
   y2="29.5"
   id="line419" />
<line
   class="st11"
   x1="511.5"
   y1="29.5"
   x2="511.5"
   y2="177.5"
   id="line421" />
<line
   class="st11"
   x1="624.5"
   y1="29.5"
   x2="624.5"
   y2="177.5"
   id="line423" />
<line
   class="st11"
   x1="511.5"
   y1="177.5"
   x2="624.5"
   y2="177.5"
   id="line425" />
<ellipse
   class="st12"
   cx="568.29999"
   cy="129.8"
   rx="34.200001"
   ry="33.700001"
   id="heater01ManualAutoClick"
   style="fill:#b3b3b3;stroke:#231815;stroke-linecap:round;stroke-miterlimit:10" />
<line
   class=""
   x1="547"
   y1="103"
   x2="592.5"
   y2="153.5"
   id="heater01ManualAuto"
   style="fill:#ffff00;stroke:#ffff00;stroke-width:6;stroke-linecap:round;stroke-miterlimit:10" />
<line
   class="st11"
   x1="513.5"
   y1="74.5"
   x2="626.5"
   y2="74.5"
   id="line431" />
<line
   class="st11"
   x1="567.5"
   y1="29.5"
   x2="567.5"
   y2="74.5"
   id="line433" />
<text
   transform="matrix(0.8376 0 0 1 518.834 61.4551)"
   class="st3 st14"
   id="text435">手动</text>





<text
   transform="matrix(0.9016 0 0 1 571.0586 61.4502)"
   class="st3 st14"
   id="text437">自动</text>





<text
   transform="matrix(1 0 0 1 453.4106 218.625)"
   class="st3 st14"
   id="text439">电加热1</text>





<text
   transform="matrix(1 0 0 1 636.4165 332.625)"
   class="st3 st14"
   id="text441">出油阀</text>





<text
   transform="matrix(1 0 0 1 464.4165 412.625)"
   class="st3 st14"
   id="text443">回流阀</text>





<circle
   class="st10"
   cx="894.4"
   cy="133.9"
   r="39.1"
   id="circle445" />
<line
   class="st11"
   x1="837.5"
   y1="33.5"
   x2="950.5"
   y2="33.5"
   id="line447" />
<line
   class="st11"
   x1="837.5"
   y1="33.5"
   x2="837.5"
   y2="181.5"
   id="line449" />
<line
   class="st11"
   x1="950.5"
   y1="33.5"
   x2="950.5"
   y2="181.5"
   id="line451" />
<line
   class="st11"
   x1="837.5"
   y1="181.5"
   x2="950.5"
   y2="181.5"
   id="line453" />
<ellipse
   class="st12"
   cx="894.29999"
   cy="133.8"
   rx="34.200001"
   ry="33.700001"
   id="heater02LocalRemoteClick"
   style="fill:#b3b3b3;stroke:#231815;stroke-linecap:round;stroke-miterlimit:10" />
<line
   class=""
   x1="873"
   y1="107"
   x2="918.5"
   y2="157.5"
   id="heater02LocalRemote"
   style="fill:#ffff00;stroke:#ffff00;stroke-width:6;stroke-linecap:round;stroke-miterlimit:10" />
<line
   class="st11"
   x1="839.5"
   y1="78.5"
   x2="952.5"
   y2="78.5"
   id="line459" />
<line
   class="st11"
   x1="893.5"
   y1="33.5"
   x2="893.5"
   y2="78.5"
   id="line461" />
<text
   transform="matrix(0.8376 0 0 1 844.834 64.4551)"
   class="st3 st14"
   id="text463">就地</text>





<text
   transform="matrix(0.9016 0 0 1 897.0586 65.4502)"
   class="st3 st14"
   id="text465">远程</text>





<circle
   class="st10"
   cx="1043.4"
   cy="133.9"
   r="39.1"
   id="circle467" />
<line
   class="st11"
   x1="986.5"
   y1="33.5"
   x2="1099.5"
   y2="33.5"
   id="line469" />
<line
   class="st11"
   x1="986.5"
   y1="33.5"
   x2="986.5"
   y2="181.5"
   id="line471" />
<line
   class="st11"
   x1="1099.5"
   y1="33.5"
   x2="1099.5"
   y2="181.5"
   id="line473" />
<line
   class="st11"
   x1="986.5"
   y1="181.5"
   x2="1099.5"
   y2="181.5"
   id="line475" />
<ellipse
   class="st12"
   cx="1043.3"
   cy="133.8"
   rx="34.200001"
   ry="33.700001"
   id="heater02ManualAutoClick"
   style="fill:#b3b3b3;stroke:#231815;stroke-linecap:round;stroke-miterlimit:10" />
<line
   class="st13"
   x1="1022"
   y1="107"
   x2="1067.5"
   y2="157.5"
   id="heater02ManualAuto"
   style="fill:#ffff00;stroke:#ffff00;stroke-width:6;stroke-linecap:round;stroke-miterlimit:10" />
<line
   class="st11"
   x1="988.5"
   y1="78.5"
   x2="1101.5"
   y2="78.5"
   id="line481" />
<line
   class="st11"
   x1="1042.5"
   y1="33.5"
   x2="1042.5"
   y2="78.5"
   id="line483" />
<text
   transform="matrix(0.8376 0 0 1 993.834 65.4551)"
   class="st3 st14"
   id="text485">手动</text>





<text
   transform="matrix(0.9016 0 0 1 1046.0586 65.4502)"
   class="st3 st14"
   id="text487">自动</text>





<text
   transform="matrix(1 0 0 1 692.4106 718.625)"
   class="st3 st14"
   id="text489">电加热2</text>





<text
   transform="matrix(1 0 0 1 1150.4165 662.625)"
   class="st3 st14"
   id="text491">拉油车</text>





<text
   transform="matrix(1 0 0 1 316.4165 718.625)"
   class="st3 st14"
   id="text493">储油罐</text>






<text
   transform="matrix(1 0 0 1 546.4106 718.625)"
   class="st3 st14"
   id="text497">电加热1</text>





<rect
   x="523.5"
   y="617.5"
   class=""
   width="131"
   height="38"
   id="heater01"
   style="fill:#03e6e6;stroke:#000000;stroke-miterlimit:10;fill-opacity:1" />

<g
   id="outValve"
   transform="translate(-0.0999878,-1)"
   style="fill:#8defef;fill-opacity:1"><ellipse
     id="ellipse333"
     ry="30.5"
     rx="32.200001"
     cy="210.2"
     cx="678.70001"
     class=""
     transform="matrix(0.06127895,-0.9981,0.9981,0.06127895,427.3144,874.6891)"
     style="fill-opacity:1;stroke:#231815;stroke-linecap:round;stroke-miterlimit:10;fill:#8defef" /><polygon
     id="polygon501"
     points="676.8,281.5 643.7,298.2 643.7,264.7 "
     class=""
     style="fill-opacity:1;stroke:#231815;stroke-linecap:round;stroke-miterlimit:10;fill:#8defef" /><polygon
     id="polygon503"
     points="679.5,281.5 712.5,264.7 712.5,298.2 "
     class=""
     style="fill:#8defef;fill-opacity:1;stroke:#231815;stroke-linecap:round;stroke-miterlimit:10" /></g>

<g
   id="loopValve"
   style="fill:#00e6e6;fill-opacity:1"><ellipse
     id="ellipse343"
     ry="33.599998"
     rx="30.4"
     cy="337.89999"
     cx="500.60001"
     class="st0"
     transform="matrix(0.0326002,-0.9995,0.9995,0.0326002,146.4989,827.1969)"
     style="fill:#00e6e6;stroke:#231815;stroke-linecap:round;stroke-miterlimit:10;fill-opacity:1" /><polygon
     id="polygon505"
     points="591.3,371.6 557.8,372.1 574.2,338.8 "
     class="st0"
     style="fill:#00e6e6;stroke:#231815;stroke-linecap:round;stroke-miterlimit:10;fill-opacity:1" /><polygon
     id="polygon507"
     points="557,303.3 590.4,302.9 574.1,336.1 "
     class="st0"
     style="fill:#00e6e6;stroke:#231815;stroke-linecap:round;stroke-miterlimit:10;fill-opacity:1" /></g>
<rect
   x="675.5"
   y="617.5"
   class="st16"
   width="130"
   height="38"
   id="heater02"
   style="fill:#00e6e6;stroke:#000000;stroke-miterlimit:10;fill-opacity:1" />
<polyline
   class="st7"
   points="535,596 535,652 568,631 596,652 621,631 648,652 648,595 "
   id="polyline511" />
<polyline
   class="st7"
   points="684,596 684,652 717,631 745,652 770,631 797,652 797,595 "
   id="polyline513" />
<rect
   x="434.5"
   y="637.5"
   class="st17"
   width="89"
   height="11"
   id="rect515" />
<rect
   x="654.5"
   y="637.5"
   class="st17"
   width="21"
   height="11"
   id="rect517" />
<rect
   x="805.5"
   y="637.5"
   class="st17"
   width="21"
   height="11"
   id="rect519" />
<rect
   x="407.5"
   y="629.5"
   class="st17"
   width="28"
   height="28"
   id="rect521" />
<rect
   x="828.5"
   y="610.5"
   class="st17"
   width="27"
   height="74"
   id="rect523" />
<rect
   x="855.5"
   y="619.5"
   class="st17"
   width="78"
   height="29"
   id="rect525" />
<line
   class="st18"
   x1="396.5"
   y1="483.5"
   x2="396.5"
   y2="413.5"
   id="line527" />
<line
   class="st2"
   x1="396.5"
   y1="439"
   x2="396.5"
   y2="403.5"
   id="line529" />
<rect
   x="391.5"
   y="357.5"
   class="st18"
   width="11"
   height="46"
   id="rect531" />
<rect
   x="232.5"
   y="301.5"
   class="st19"
   width="146"
   height="72"
   id="rect533" />
<rect
   x="234"
   y="302"
   class="st20"
   width="144"
   height="32"
   id="rect535" />
<rect
   x="237"
   y="301.7"
   class="st21"
   width="138.5"
   height="26.3"
   id="rect537" />
<text
   class="st3 st14"
   id="text539"
   style="font-style:normal;font-variant:normal;font-weight:normal;font-stretch:normal;font-size:16px;font-family:AdobeSongStd-Light-GBpc-EUC-H;-inkscape-font-specification:'AdobeSongStd-Light-GBpc-EUC-H, Normal';font-variant-ligatures:normal;font-variant-caps:normal;font-variant-numeric:normal;font-feature-settings:normal;text-align:start;writing-mode:lr-tb;text-anchor:start"
   x="263.63788"
   y="321.93344">空高（mm)</text>





<rect
   x="246.3"
   y="337.6"
   class="st21"
   width="115.7"
   height="36.4"
   id="rect541" />
<text
   class=""
   id="levelLabel"
   x="255.0376"
   y="362.50491"
   style="font-size:26px;font-family:AdobeSongStd-Light-GBpc-EUC-H;fill:#00ff00">####.##</text>





<rect
   x="36.5"
   y="634"
   class="st22"
   width="48.5"
   height="48"
   id="rect545" />
<rect
   x="85.5"
   y="645.5"
   class="st22"
   width="12"
   height="23"
   id="rect547" />
<line
   class="st16"
   x1="36.5"
   y1="643.5"
   x2="85.5"
   y2="643.5"
   id="line549" />
<line
   class="st16"
   x1="36.5"
   y1="656.5"
   x2="84.5"
   y2="656.5"
   id="line551" />
<line
   class="st16"
   x1="36.5"
   y1="670.5"
   x2="85.5"
   y2="670.5"
   id="line553" />

<rect
   x="166.5"
   y="618.5"
   class="st16"
   width="19"
   height="8"
   id="rect557" />
<rect
   x="195.5"
   y="647.5"
   class="st16"
   width="10"
   height="19"
   id="rect559" />
<rect
   x="59.5"
   y="689.5"
   class="st16"
   width="136"
   height="5"
   id="rect561" />
<rect
   x="65.5"
   y="681.5"
   class="st16"
   width="8"
   height="8"
   id="rect563" />
<text
   transform="matrix(1 0 0 1 82.4165 730.625)"
   class="st3 st14"
   id="text565">装车泵</text>





<line
   class="st11"
   x1="1092.9"
   y1="515.4"
   x2="1092.9"
   y2="542.2"
   id="line567" />
<ellipse
   class="st0"
   cx="1101.2"
   cy="515"
   rx="8.3"
   ry="3.5"
   id="ellipse569" />
<line
   class="st11"
   x1="1109.3"
   y1="515.4"
   x2="1109.3"
   y2="542.2"
   id="line571" />
<rect
   x="1092.9"
   y="518.5"
   class="st0"
   width="16.4"
   height="34.5"
   id="rect573" />
<rect
   x="864.5"
   y="283.7"
   class="st19"
   width="124"
   height="96"
   id="rect575" />
<rect
   x="864"
   y="284"
   class="st20"
   width="124"
   height="32.5"
   id="rect577" />
<rect
   x="869"
   y="292.7"
   class="st21"
   width="119"
   height="13.3"
   id="rect579" />
<text
   transform="matrix(1 0 0 1 876 305.8774)"
   class="st3 st23"
   id="text581">介质温度（℃）</text>





<rect
   x="869.3"
   y="319.6"
   class="st21"
   width="115.7"
   height="36.4"
   id="rect583" />
<text
   transform="scale(0.89675346,1.1151337)"
   class="st20 st3 st14"
   id="text585"
   x="964.34894"
   y="310.72949"
   style="font-style:normal;font-variant:normal;font-weight:normal;font-stretch:normal;font-size:32px;font-family:AdobeSongStd-Light-GBpc-EUC-H;-inkscape-font-specification:'AdobeSongStd-Light-GBpc-EUC-H, Normal';font-variant-ligatures:normal;font-variant-caps:normal;font-variant-numeric:normal;font-feature-settings:normal;text-align:start;writing-mode:lr-tb;text-anchor:start;fill:#00ff00;stroke-width:0.89675349">PV </text>





<rect
   x="888.3"
   y="355.6"
   class="st21"
   width="115.7"
   height="36.4"
   id="rect587" />
<text
   class="st20 st3 st24"
   id="text589"
   style="font-size:21px;font-family:AdobeSongStd-Light-GBpc-EUC-H;fill:#00ff00"
   x="883.65381"
   y="373.38254">SP</text>





<rect
   x="863.5"
   y="393.7"
   class="st19"
   width="124"
   height="96"
   id="rect591" />
<rect
   x="863"
   y="394"
   class="st20"
   width="124"
   height="32.5"
   id="rect593" />
<rect
   x="868"
   y="402.7"
   class="st21"
   width="119"
   height="13.3"
   id="rect595" />
<text
   transform="matrix(1 0 0 1 879.0352 415.8774)"
   class="st3 st23"
   id="text597">电加热1（℃）</text>





<rect
   x="868.3"
   y="429.6"
   class="st21"
   width="115.7"
   height="36.4"
   id="rect599" />


<rect
   x="878.3"
   y="465.6"
   class="st21"
   width="115.7"
   height="36.4"
   id="rect603" />


<rect
   x="862.5"
   y="507.7"
   class="st19"
   width="124"
   height="96"
   id="rect607" />
<rect
   x="862"
   y="508"
   class="st20"
   width="124"
   height="32.5"
   id="rect609" />
<rect
   x="867"
   y="516.7"
   class="st21"
   width="119"
   height="13.3"
   id="rect611" />
<text
   transform="matrix(1 0 0 1 878.0352 529.8774)"
   class="st3 st23"
   id="text613">电加热2（℃）</text>





<rect
   x="867.3"
   y="543.6"
   class="st21"
   width="115.7"
   height="36.4"
   id="rect615" />


<rect
   x="878.3"
   y="579.6"
   class="st21"
   width="115.7"
   height="36.4"
   id="rect619" />


<line
   class="st1"
   x1="713"
   y1="279"
   x2="1100"
   y2="276"
   id="line623" />
<text
   y="217.27209"
   x="924.27228"
   class="st3 st14"
   id="text439-1"
   style="font-size:26px;font-family:AdobeSongStd-Light-GBpc-EUC-H">电加热2</text>



<text
   transform="scale(0.89675346,1.1151337)"
   class=""
   id="pvOilLabel"
   x="1096.9672"
   y="311.92416"
   style="font-style:normal;font-variant:normal;font-weight:normal;font-stretch:normal;font-size:32px;font-family:AdobeSongStd-Light-GBpc-EUC-H;-inkscape-font-specification:'AdobeSongStd-Light-GBpc-EUC-H, Normal';font-variant-ligatures:normal;font-variant-caps:normal;font-variant-numeric:normal;font-feature-settings:normal;text-align:end;writing-mode:lr-tb;text-anchor:end;fill:#00ff00;stroke-width:0.89675349"
   inkscape:transform-center-x="-34.113894"
   inkscape:transform-center-y="-0.87471524">##.#</text>



<text
   class="st20 st3 st24"
   id="spOilLabel"
   style="font-style:normal;font-variant:normal;font-weight:normal;font-stretch:normal;font-size:21px;font-family:AdobeSongStd-Light-GBpc-EUC-H;-inkscape-font-specification:'AdobeSongStd-Light-GBpc-EUC-H, Normal';font-variant-ligatures:normal;font-variant-caps:normal;font-variant-numeric:normal;font-feature-settings:normal;text-align:end;writing-mode:lr;text-anchor:end;fill:#00ff00;"
   x="981.17773"
   y="373.69016"><tspan
     sodipodi:role="line"
     id="tspan982">##</tspan></text>



<text
   transform="scale(0.89675346,1.1151337)"
   class="st20 st3 st14"
   id="text585-4"
   x="964.11121"
   y="408.07306"
   style="font-style:normal;font-variant:normal;font-weight:normal;font-stretch:normal;font-size:32px;font-family:AdobeSongStd-Light-GBpc-EUC-H;-inkscape-font-specification:'AdobeSongStd-Light-GBpc-EUC-H, Normal';font-variant-ligatures:normal;font-variant-caps:normal;font-variant-numeric:normal;font-feature-settings:normal;text-align:start;writing-mode:lr-tb;text-anchor:start;fill:#00ff00;stroke-width:0.89675349">PV</text>



<text
   class="st20 st3 st24"
   id="text589-5"
   style="font-size:21px;font-family:AdobeSongStd-Light-GBpc-EUC-H;fill:#00ff00"
   x="883.44055"
   y="481.93362">SP</text>



<text
   transform="scale(0.89675346,1.1151337)"
   class=""
   id="pvHeater01Label"
   x="1096.7292"
   y="409.26773"
   style="font-style:normal;font-variant:normal;font-weight:normal;font-stretch:normal;font-size:31.99999994px;font-family:AdobeSongStd-Light-GBpc-EUC-H;-inkscape-font-specification:'AdobeSongStd-Light-GBpc-EUC-H, Normal';font-variant-ligatures:normal;font-variant-caps:normal;font-variant-numeric:normal;font-feature-settings:normal;text-align:end;writing-mode:lr;text-anchor:end;fill:#00ff00;stroke-width:0.89675349;"
   inkscape:transform-center-x="-34.113894"
   inkscape:transform-center-y="-0.87471524"><tspan
     sodipodi:role="line"
     id="tspan984">##.#</tspan></text>



<text
   class=""
   id="spHeater01Label"
   style="font-style:normal;font-variant:normal;font-weight:normal;font-stretch:normal;font-size:21px;font-family:AdobeSongStd-Light-GBpc-EUC-H;-inkscape-font-specification:'AdobeSongStd-Light-GBpc-EUC-H, Normal';font-variant-ligatures:normal;font-variant-caps:normal;font-variant-numeric:normal;font-feature-settings:normal;text-align:end;writing-mode:lr;text-anchor:end;fill:#00ff00;"
   x="980.96442"
   y="482.24124"><tspan
     sodipodi:role="line"
     id="tspan986">##</tspan></text>



<text
   transform="scale(0.89675346,1.1151337)"
   class="st20 st3 st14"
   id="text585-4-8"
   x="963.83185"
   y="510.82999"
   style="font-style:normal;font-variant:normal;font-weight:normal;font-stretch:normal;font-size:32px;font-family:AdobeSongStd-Light-GBpc-EUC-H;-inkscape-font-specification:'AdobeSongStd-Light-GBpc-EUC-H, Normal';font-variant-ligatures:normal;font-variant-caps:normal;font-variant-numeric:normal;font-feature-settings:normal;text-align:start;writing-mode:lr-tb;text-anchor:start;fill:#00ff00;stroke-width:0.89675349">PV</text>



<text
   class="st20 st3 st24"
   id="text589-5-1"
   style="font-size:21px;font-family:AdobeSongStd-Light-GBpc-EUC-H;fill:#00ff00"
   x="883.18994"
   y="596.5213">SP</text>



<text
   transform="scale(0.89675346,1.1151337)"
   class=""
   id="pvHeater02Label"
   x="1096.4498"
   y="512.02466"
   style="font-style:normal;font-variant:normal;font-weight:normal;font-stretch:normal;font-size:31.99999994px;font-family:AdobeSongStd-Light-GBpc-EUC-H;-inkscape-font-specification:'AdobeSongStd-Light-GBpc-EUC-H, Normal';font-variant-ligatures:normal;font-variant-caps:normal;font-variant-numeric:normal;font-feature-settings:normal;text-align:end;writing-mode:lr;text-anchor:end;fill:#00ff00;stroke-width:0.89675349;"
   inkscape:transform-center-x="-34.113894"
   inkscape:transform-center-y="-0.87471524"><tspan
     sodipodi:role="line"
     id="tspan988">##.#</tspan></text>



<text
   class="st20 st3 st24"
   id="spHeater02Label"
   style="font-style:normal;font-variant:normal;font-weight:normal;font-stretch:normal;font-size:21px;font-family:AdobeSongStd-Light-GBpc-EUC-H;-inkscape-font-specification:'AdobeSongStd-Light-GBpc-EUC-H, Normal';font-variant-ligatures:normal;font-variant-caps:normal;font-variant-numeric:normal;font-feature-settings:normal;text-align:end;writing-mode:lr;text-anchor:end;fill:#00ff00;"
   x="980.71387"
   y="596.82892"><tspan
     sodipodi:role="line"
     id="tspan990">##</tspan></text>



<rect
   x="338"
   y="434"
   class=""
   width="32"
   height="250"
   id="levelGauge-8"
   style="fill:#322bfb;fill-opacity:1;stroke:#000000;stroke-width:3.00094485;stroke-miterlimit:10;stroke-dasharray:none" /><g
   inkscape:groupmode="layer"
   id="layer1"
   inkscape:label="Layer 1"><text
   transform="scale(0.94646715,1.0565607)"
   class="st3 st4"
   id="text337"
   x="702.03229"
   y="208.84862"
   style="font-size:31.18533325px;font-family:AdobeSongStd-Light-GBpc-EUC-H;stroke-width:0.9464671">M</text>



<text
   style="enable-background:new 0 0 1366 768"
   transform="matrix(-0.00165584,-0.8549,1,-0.00158767,512.9662,351.1953)"
   class="st3 st5"
   id="text345">M</text>



<rect
   x="97.5"
   y="627.5"
   class=""
   width="98"
   height="62"
   id="loadPump"
   style="fill:#8defef;fill-opacity:1;stroke:#000000;stroke-miterlimit:10" /><rect
   x="339.54901"
   y="435.17542"
   class=""
   width="30"
   height="250"
   id="levelGauge"
   style="fill:#e6e6e6;fill-opacity:1;stroke:none;stroke-width:2.97405553;stroke-miterlimit:10" /></g></svg>